inDegrees=no
num_controls=7
num_derivatives=13
num_iterations=175
num_multipliers=7
num_parameters=0
num_slacks=7
num_states=26
objective=5.713635
objective_accelerations=0.648011
objective_balance=0.088926
objective_effort=0.504888
objective_height=4.389636
objective_ligament=0.082173
solver_duration=1967.251065
status=Solve_Succeeded
success=true
DataType=double
version=3
OpenSimVersion=4.4-2022-07-23-0e9fedc
endheader
time	/jointset/ground_pelvis/pelvis_tilt/value	/jointset/ground_pelvis/pelvis_tx/value	/jointset/ground_pelvis/pelvis_ty/value	/jointset/hip_l/hip_flexion_l/value	/jointset/hip_l/hip_adduction_l/value	/jointset/hip_l/hip_rotation_l/value	/jointset/back/lumbar_extension/value	/jointset/patellofemoral_l/patellar_flexion_l/value	/jointset/knee_l/knee_flexion_l/value	/jointset/knee_l/knee_adduction_l/value	/jointset/knee_l/knee_rotation_l/value	/jointset/ankle_l/ankle_angle_l/value	/jointset/subtalar_l/subtalar_angle_l/value	/jointset/ground_pelvis/pelvis_tilt/speed	/jointset/ground_pelvis/pelvis_tx/speed	/jointset/ground_pelvis/pelvis_ty/speed	/jointset/hip_l/hip_flexion_l/speed	/jointset/hip_l/hip_adduction_l/speed	/jointset/hip_l/hip_rotation_l/speed	/jointset/back/lumbar_extension/speed	/jointset/patellofemoral_l/patellar_flexion_l/speed	/jointset/knee_l/knee_flexion_l/speed	/jointset/knee_l/knee_adduction_l/speed	/jointset/knee_l/knee_rotation_l/speed	/jointset/ankle_l/ankle_angle_l/speed	/jointset/subtalar_l/subtalar_angle_l/speed	/forceset/tau_hip_flexion_l	/forceset/tau_hip_adduction_l	/forceset/tau_hip_rotation_l	/forceset/tau_knee_flexion_l	/forceset/tau_ankle_angle_l	/forceset/tau_subtalar_angle_l	/forceset/tau_lumbar_extension	lambda_cid13_p0	lambda_cid13_p1	lambda_cid13_p2	lambda_cid13_p3	lambda_cid13_p4	lambda_cid13_p5	lambda_cid14_p0	/jointset/ground_pelvis/pelvis_tilt/accel	/jointset/ground_pelvis/pelvis_tx/accel	/jointset/ground_pelvis/pelvis_ty/accel	/jointset/hip_l/hip_flexion_l/accel	/jointset/hip_l/hip_adduction_l/accel	/jointset/hip_l/hip_rotation_l/accel	/jointset/back/lumbar_extension/accel	/jointset/patellofemoral_l/patellar_flexion_l/accel	/jointset/knee_l/knee_flexion_l/accel	/jointset/knee_l/knee_adduction_l/accel	/jointset/knee_l/knee_rotation_l/accel	/jointset/ankle_l/ankle_angle_l/accel	/jointset/subtalar_l/subtalar_angle_l/accel	gamma_cid13_p0	gamma_cid13_p1	gamma_cid13_p2	gamma_cid13_p3	gamma_cid13_p4	gamma_cid13_p5	gamma_cid14_p0
0.5	-0.5119340093528107	-0.104931852146504	0.7530179725222964	1.342558861776237	-0.3113654602772184	-0.06941643873540269	-0.338578467098516	0.6360703230135025	0.6360703230133723	-0.1740902927039819	0.1745211085013052	-0.03620782550164382	-0.06459887054154274	-0.9249222027760412	-0.3354306755421645	-0.5234178904555683	2.570371113245708	-0.05527122280288393	0.5584389858306166	-0.6131710284739853	1.636211896492709	1.636211896492865	-0.003215865697589497	-6.211254293779614e-05	0.06405105277397763	-0.05916983584047094	-0.2786907038631707	0.01267244587537496	-0.01844223844348531	-0.1803068465972917	0.1770229228630128	0.04512108251531703	0.2405503666130056	17.71245668738456	-24.971859802373	6.176748391123529	-8.687755116520348	-609.0645050344137	-60.47135673659362	-31.25735956506431	0.704667194087965	0.8354886786489223	-0.2595171298859963	-1.743004666259453	0.5239691700659383	-0.225945008392953	1.943460279077349	-1.014198315179185	-1.014198315179184	0.02419826475290295	-0.03262476385743975	0.1173584421949805	0.5326655336606938	-1.426279737898071e-09	-9.646987706476107e-07	1.764193579088199e-07	-1.683276452594209e-07	-2.052615762555954e-07	1.574762734522153e-07	-1.619294443368146e-07
0.51	-0.521145977329829	-0.1082440231580289	0.7477719324281478	1.368170990244547	-0.3118930491119191	-0.06384516592068826	-0.3446132716473579	0.6523795601524642	0.6523795601523603	-0.1741225963112076	0.1745205368790415	-0.03556197778029474	-0.06516504228599405	-0.9173492626825549	-0.3269772031210798	-0.5256824617438993	2.55172057712146	-0.05025426781960508	0.5557408982555302	-0.5937326024622053	1.625414308959959	1.625414308959934	-0.003240212876989665	-4.896725754708967e-05	0.06508893521753055	-0.05407387479172462	-0.2880754886075362	0.01332184998677981	-0.01850490039133709	-0.1810176893653724	0.1780889548643092	0.0458772587740498	0.2475776013429258	17.77386461445184	-25.18906776832354	6.072079428919659	-8.80126807123755	-614.1001044976272	-60.10010656281037	-30.37106693651517	0.8019133866613664	0.8541922696506042	-0.1938169978185084	-1.976195322908717	0.489517576121843	-0.303110193761117	1.952625587105608	-1.145690245653749	-1.145690245680942	-0.01522632699512573	0.0186688082683752	0.09256519572523168	0.4967826972480707	-1.786161011931857e-08	-8.90293376352376e-07	2.352849842474575e-07	-1.498950677809061e-07	-1.986133933121838e-07	1.76139616567913e-07	-1.638601076652441e-07
0.52	-0.5302785547119744	-0.1114708762961807	0.742506468647213	1.393586589904134	-0.3123706766140539	-0.05830314789407261	-0.3504519735711069	0.668574191161429	0.6685741911613583	-0.174155038413755	0.1745201736363511	-0.03490663882445279	-0.06568051015860463	-0.9090440838017685	-0.3183671008675272	-0.5273026278127172	2.531065351501157	-0.04527895628980102	0.5525880282126535	-0.5739505034553309	1.613290670493975	1.613290670493769	-0.003243564764737632	-2.043663091278439e-05	0.06594929967267424	-0.04902906147232023	-0.2974602733519274	0.01397125409816062	-0.01856756233908874	-0.1817285321334726	0.1791549868655982	0.04663343503275767	0.254604836072828	17.82701244818752	-25.4070745708744	5.970102184307994	-8.893057960112243	-619.2603628051334	-59.77917763894278	-29.46849210054604	0.8511149515480578	0.8668146451424538	-0.1306360859833526	-2.143942565470585	0.5156404793709878	-0.3169015019510742	2.012194878096252	-1.2794085018259	-1.279408501825918	0.0283973230833627	-0.02954769560866778	0.08185484451310006	0.5224359877922973	-4.391773222603688e-08	-7.986697584506824e-07	3.455646604684772e-07	-1.213934577787037e-07	-1.971854441865477e-07	2.002888264443623e-07	-1.708761706766592e-07
0.53	-0.539324590626395	-0.1146109400933936	0.7372280208932467	1.418785923453505	-0.3127987912320545	-0.05279456373434135	-0.3560912127338752	0.684641040483662	0.6846410404837239	-0.1741875122230302	0.1745198811809837	-0.03424358049486174	-0.06614581786889255	-0.9000507908462776	-0.309627846323022	-0.5282787023033052	2.508487147804875	-0.04035254948405725	0.5490384414422407	-0.5538542470999622	1.599870910181558	1.599870910181442	-0.003230740123221508	-2.243344288686075e-05	0.06663495949071509	-0.04404221686246212	-0.3066159863006661	0.0144422586922692	-0.01866112227311226	-0.1824567127533675	0.1802653866298706	0.04723662082724571	0.2613865490629768	17.89903007414637	-25.56630357197461	5.863736644211802	-8.968822693334481	-624.2700330794028	-59.3680135634276	-28.55315257893101	0.9402641147113363	0.8801314122569108	-0.06489931611859476	-2.361913010848075	0.4799145911320836	-0.3877145299939902	2.014803314049396	-1.404467449275049	-1.404467449261705	-0.009332390263510914	0.01668413968811996	0.05780894856965228	0.4854190102427418	-9.105563444278043e-08	-6.739857816700425e-07	5.579687873596605e-07	-6.709913316084207e-08	-2.104391522848561e-07	2.412421664358527e-07	-1.880368203694421e-07
